# Blender 5.0.0
# www.blender.org
mtllib cajonera.mtl
g box_Malla
v -0.200000 1.200000 1.590809
v 0.200000 1.200000 1.590809
v 0.180000 0.930000 1.560809
v 0.180000 1.170000 1.560809
v 0.180000 1.170000 1.220809
v 0.180000 0.930000 1.220809
v -0.190000 0.910000 1.580809
v -0.190000 1.190000 1.580809
v -0.190000 1.190000 1.200809
v -0.190000 0.910000 1.200809
v -0.190000 0.930000 1.560809
v -0.190000 1.170000 1.560809
v -0.190000 1.170000 1.220809
v -0.190000 0.930000 1.220809
v -0.200000 0.900000 1.590809
v -0.200000 1.200000 1.190809
v -0.200000 0.900000 1.190809
v -0.200000 0.910000 1.200809
v -0.200000 1.190000 1.200809
v 0.200000 0.900000 1.190809
v 0.200000 1.200000 1.190809
v -0.200000 0.910000 1.580809
v -0.200000 1.190000 1.580809
v 0.200000 0.900000 1.590809
v 0.180000 0.630000 1.560809
v 0.180000 0.870000 1.560809
v 0.180000 0.870000 1.220809
v 0.180000 0.630000 1.220809
v -0.190000 0.610000 1.580809
v -0.190000 0.890000 1.580809
v -0.190000 0.890000 1.200809
v -0.190000 0.610000 1.200809
v -0.190000 0.630000 1.560809
v -0.190000 0.870000 1.560809
v -0.190000 0.870000 1.220809
v -0.190000 0.630000 1.220809
v -0.200000 0.610000 1.200809
v -0.200000 0.890000 1.200809
v -0.200000 0.610000 1.580809
v -0.200000 0.890000 1.580809
v 0.200000 0.600000 1.590809
v -0.200000 0.600000 1.590809
v 0.180000 0.330000 1.560809
v 0.180000 0.570000 1.560809
v 0.180000 0.570000 1.220809
v 0.180000 0.330000 1.220809
v -0.190000 0.310000 1.580809
v -0.190000 0.590000 1.580809
v -0.190000 0.590000 1.200809
v -0.190000 0.310000 1.200809
v -0.190000 0.330000 1.560809
v -0.190000 0.570000 1.560809
v -0.190000 0.570000 1.220809
v -0.190000 0.330000 1.220809
v -0.200000 0.600000 1.190809
v -0.200000 0.310000 1.200809
v -0.200000 0.590000 1.200809
v 0.200000 0.300000 1.190809
v 0.200000 0.600000 1.190809
v -0.200000 0.310000 1.580809
v -0.200000 0.590000 1.580809
v -0.200000 0.300000 1.590809
v 0.200000 0.300000 1.590809
v 0.180000 0.030000 1.560809
v 0.180000 0.270000 1.560809
v 0.180000 0.270000 1.220809
v 0.180000 0.030000 1.220809
v -0.190000 0.010000 1.580809
v -0.190000 0.290000 1.580809
v -0.190000 0.290000 1.200809
v -0.190000 0.010000 1.200809
v -0.190000 0.030000 1.560809
v -0.190000 0.270000 1.560809
v -0.190000 0.270000 1.220809
v -0.190000 0.030000 1.220809
v -0.200000 0.000000 1.590809
v -0.200000 0.300000 1.190809
v -0.200000 0.000000 1.190809
v -0.200000 0.010000 1.200809
v -0.200000 0.290000 1.200809
v 0.200000 -0.000000 1.190809
v -0.200000 0.010000 1.580809
v 0.200000 -0.000000 1.590809
v -0.200000 0.290000 1.580809
vn -0.0000 -1.0000 -0.0000
vn -0.0000 1.0000 -0.0000
vn -1.0000 -0.0000 -0.0000
vn -0.0000 -0.0000 1.0000
vn -0.0000 -0.0000 -1.0000
vn 1.0000 -0.0000 -0.0000
vt 0.506196 0.252165
vt 0.258361 0.004330
vt 0.506196 0.004330
vt 0.255474 0.348236
vt 0.007639 0.100401
vt 0.255474 0.100401
vt 0.862983 0.916508
vt 0.894146 0.882594
vt 0.894146 0.916508
vt 0.831392 0.916508
vt 0.862556 0.882594
vt 0.862556 0.916508
vt 0.793671 0.789038
vt 0.806063 0.950130
vt 0.793671 0.962522
vt 0.860579 0.847827
vt 0.882577 0.813913
vt 0.882577 0.847827
vt 0.993012 0.898316
vt 0.971014 0.929480
vt 0.971014 0.898316
vt 0.509083 0.252165
vt 0.694959 0.004330
vt 0.694959 0.252165
vt 0.255474 0.091318
vt 0.013835 0.097514
vt 0.007639 0.091318
vt 0.775506 0.962523
vt 0.763114 0.801430
vt 0.775506 0.789038
vt 0.995248 0.255052
vt 0.772197 0.267443
vt 0.759805 0.255052
vt 0.778392 0.688465
vt 0.951876 0.682269
vt 0.951876 0.688465
vt 0.808950 0.789038
vt 0.815145 0.968717
vt 0.808950 0.974913
vt 0.986164 0.312178
vt 0.763114 0.324569
vt 0.775506 0.312178
vt 0.007642 0.057875
vt 0.249279 0.051679
vt 0.255474 0.057875
vt 0.872148 0.950849
vt 0.894146 0.916935
vt 0.894146 0.950849
vt 0.754031 0.255052
vt 0.760227 0.434732
vt 0.754031 0.440928
vt 0.506196 0.255052
vt 0.778392 0.652134
vt 0.951876 0.645939
vt 0.951876 0.652134
vt 0.020029 0.948391
vt 0.255474 0.942195
vt 0.255474 0.948391
vt 0.763114 0.282043
vt 0.998555 0.275847
vt 0.998555 0.282043
vt 0.506196 0.440928
vt 0.258361 0.255052
vt 0.892170 0.849786
vt 0.923334 0.815873
vt 0.923334 0.849786
vt 0.828988 0.882167
vt 0.860152 0.848254
vt 0.860152 0.882167
vt 0.936798 0.417632
vt 0.949190 0.578725
vt 0.936798 0.591117
vt 0.926164 0.947055
vt 0.948162 0.913142
vt 0.948162 0.947055
vt 0.949368 0.851004
vt 0.927371 0.882167
vt 0.927371 0.851004
vt 0.255474 0.536999
vt 0.007639 0.351123
vt 0.255474 0.351123
vt 0.255474 0.076040
vt 0.013837 0.082236
vt 0.007641 0.076040
vt 0.790784 0.962522
vt 0.778392 0.801430
vt 0.790784 0.789038
vt 0.255474 0.926917
vt 0.032423 0.939309
vt 0.020031 0.926917
vt 0.778392 0.661217
vt 0.951876 0.655021
vt 0.951876 0.661217
vt 0.001443 0.530803
vt 0.001443 0.357319
vt 0.986164 0.342735
vt 0.763114 0.355127
vt 0.775506 0.342735
vt 0.249278 0.085122
vt 0.862556 0.916935
vt 0.840558 0.950849
vt 0.840558 0.916935
vt 0.760227 0.620608
vt 0.754031 0.626804
vt 0.778392 0.670300
vt 0.951876 0.664104
vt 0.951876 0.670300
vt 0.020031 0.957474
vt 0.255474 0.951278
vt 0.255474 0.957474
vt 0.020031 0.039709
vt 0.255474 0.033514
vt 0.255474 0.039709
vt 0.506196 0.626804
vt 0.258361 0.440928
vt 0.923761 0.849786
vt 0.954925 0.815873
vt 0.954925 0.849786
vt 0.894573 0.916508
vt 0.925737 0.882594
vt 0.925737 0.916508
vt 0.967355 0.417632
vt 0.979747 0.578722
vt 0.967355 0.591114
vt 0.955352 0.848243
vt 0.977350 0.814329
vt 0.977350 0.848243
vt 0.938996 0.947482
vt 0.916998 0.978646
vt 0.916998 0.947482
vt 0.255474 0.722875
vt 0.007639 0.536999
vt 0.255474 0.917834
vt 0.013837 0.924030
vt 0.007641 0.917834
vt 0.964468 0.591116
vt 0.952077 0.430024
vt 0.964468 0.417632
vt 0.998556 0.358013
vt 0.775506 0.370405
vt 0.763114 0.358013
vt 0.778392 0.706630
vt 0.951878 0.700434
vt 0.951878 0.706630
vt 0.007639 0.722875
vt 0.001443 0.543195
vt 0.986164 0.327456
vt 0.763114 0.339848
vt 0.775506 0.327456
vt 0.249279 0.069844
vt 0.982475 0.863975
vt 0.960477 0.897889
vt 0.960477 0.863975
vt 0.754031 0.812681
vt 0.760227 0.633000
vt 0.760227 0.806485
vt 0.778392 0.679382
vt 0.951876 0.673186
vt 0.951876 0.679382
vt 0.763114 0.309291
vt 0.998556 0.303095
vt 0.998556 0.309291
vt 0.763114 0.300208
vt 0.998555 0.294012
vt 0.998555 0.300208
vt 0.506196 0.812681
vt 0.258361 0.626804
vt 0.828988 0.847827
vt 0.860152 0.813913
vt 0.860152 0.847827
vt 0.860579 0.882167
vt 0.891743 0.848254
vt 0.891743 0.882167
vt 0.763114 0.612667
vt 0.775506 0.773760
vt 0.763114 0.786151
vt 0.948589 0.947055
vt 0.970587 0.913142
vt 0.970587 0.947055
vt 0.506196 0.998557
vt 0.258361 0.812681
vt 0.020029 0.048792
vt 0.255474 0.042596
vt 0.255474 0.048792
vt 0.763114 0.291126
vt 0.998555 0.284930
vt 0.998555 0.291126
vt 0.778392 0.643052
vt 0.951876 0.636856
vt 0.951876 0.643052
vt 0.754031 0.998557
vt 0.760227 0.992361
vt 0.916571 0.916935
vt 0.894573 0.950849
vt 0.894573 0.916935
vt 0.249279 0.911638
vt 0.998557 0.786151
vt 0.007639 0.908751
vt 0.001443 0.729071
vt 0.778392 0.697548
vt 0.951878 0.691352
vt 0.951878 0.697548
vt 0.998557 0.612667
vt 0.775506 0.625059
vt 0.986165 0.625059
vt 0.255474 0.060761
vt 0.013833 0.066957
vt 0.007637 0.060761
vt 0.255474 0.908751
vt 0.993012 0.929907
vt 0.971014 0.961070
vt 0.971014 0.929907
vt 0.258361 0.252165
vt 0.007639 0.348236
vt 0.862983 0.882594
vt 0.831392 0.882594
vt 0.806063 0.801430
vt 0.860579 0.813913
vt 0.993012 0.929480
vt 0.509083 0.004330
vt 0.249278 0.097514
vt 0.763114 0.950131
vt 0.982856 0.267443
vt 0.778392 0.682269
vt 0.815145 0.795234
vt 0.998556 0.324569
vt 0.013838 0.051679
vt 0.872148 0.916935
vt 0.760227 0.261248
vt 0.778392 0.645939
vt 0.020029 0.942195
vt 0.763114 0.275847
vt 0.892170 0.815873
vt 0.828988 0.848254
vt 0.949190 0.430024
vt 0.926164 0.913142
vt 0.949368 0.882167
vt 0.249279 0.082236
vt 0.778392 0.950130
vt 0.243083 0.939309
vt 0.778392 0.655021
vt 0.998556 0.355127
vt 0.013835 0.085122
vt 0.862556 0.950849
vt 0.760227 0.447124
vt 0.778392 0.664104
vt 0.020031 0.951278
vt 0.020031 0.033514
vt 0.923761 0.815873
vt 0.894573 0.882594
vt 0.979747 0.430023
vt 0.955352 0.814329
vt 0.938996 0.978646
vt 0.249279 0.924030
vt 0.952077 0.578725
vt 0.986164 0.370405
vt 0.778392 0.700434
vt 0.001443 0.716679
vt 0.998556 0.339848
vt 0.013837 0.069844
vt 0.982475 0.897889
vt 0.778392 0.673186
vt 0.763114 0.303095
vt 0.763114 0.294012
vt 0.828988 0.813913
vt 0.860579 0.848254
vt 0.948589 0.913142
vt 0.258361 0.998557
vt 0.020029 0.042596
vt 0.763114 0.284930
vt 0.778392 0.636856
vt 0.760227 0.818876
vt 0.916571 0.950849
vt 0.013837 0.911638
vt 0.986165 0.773760
vt 0.001443 0.902556
vt 0.778392 0.691352
vt 0.249278 0.066957
vt 0.993012 0.961070
s 1
g off
g box_Material.001
usemtl Material.001
f 81/1/1 76/2/1 78/3/1
s 2
f 2/4/2 16/5/2 1/6/2
s 3
f 6/7/2 11/8/2 3/9/2
s 4
f 4/10/1 13/11/1 5/12/1
s 5
f 10/13/3 13/14/3 9/15/3
s 6
f 5/16/4 14/17/4 6/18/4
s 7
f 6/19/3 4/20/3 5/21/3
s 8
f 20/22/5 16/23/5 21/24/5
s 9
f 15/25/3 18/26/3 17/27/3
s 5
f 8/28/3 11/29/3 7/30/3
f 7/31/3 14/32/3 10/33/3
s 10
f 9/34/4 18/35/4 10/36/4
s 9
f 17/37/3 19/38/3 16/39/3
s 5
f 12/40/3 9/41/3 13/42/3
s 9
f 16/43/3 23/44/3 1/45/3
s 11
f 3/46/5 12/47/5 4/48/5
s 9
f 1/49/3 22/50/3 15/51/3
s 12
f 15/51/4 2/52/4 1/49/4
s 13
f 7/53/5 23/54/5 8/55/5
s 14
f 8/56/1 19/57/1 9/58/1
s 15
f 10/59/2 22/60/2 7/61/2
s 16
f 24/62/6 21/63/6 2/52/6
s 17
f 28/64/2 33/65/2 25/66/2
s 18
f 26/67/1 35/68/1 27/69/1
s 19
f 32/70/3 35/71/3 31/72/3
s 20
f 27/73/4 36/74/4 28/75/4
s 21
f 28/76/3 26/77/3 27/78/3
s 8
f 59/79/5 17/80/5 20/81/5
s 9
f 42/82/3 37/83/3 55/84/3
s 19
f 30/85/3 33/86/3 29/87/3
f 29/88/3 36/89/3 32/90/3
s 22
f 31/91/4 37/92/4 32/93/4
s 9
f 17/80/3 37/94/3 38/95/3
s 19
f 34/96/3 31/97/3 35/98/3
s 9
f 17/27/3 40/99/3 15/25/3
s 23
f 25/100/5 34/101/5 26/102/5
s 9
f 15/51/3 39/103/3 42/104/3
s 12
f 42/104/4 24/62/4 15/51/4
s 24
f 29/105/5 40/106/5 30/107/5
s 25
f 30/108/1 38/109/1 31/110/1
s 26
f 32/111/2 39/112/2 29/113/2
s 16
f 41/114/6 20/115/6 24/62/6
s 27
f 46/116/2 51/117/2 43/118/2
s 28
f 44/119/1 53/120/1 45/121/1
s 29
f 50/122/3 53/123/3 49/124/3
s 30
f 45/125/4 54/126/4 46/127/4
s 31
f 46/128/3 44/129/3 45/130/3
s 8
f 58/131/5 55/132/5 59/79/5
s 9
f 62/133/3 56/134/3 77/135/3
s 29
f 48/136/3 51/137/3 47/138/3
f 47/139/3 54/140/3 50/141/3
s 32
f 49/142/4 56/143/4 50/144/4
s 9
f 77/145/3 57/146/3 55/132/3
s 29
f 52/147/3 49/148/3 53/149/3
s 9
f 55/84/3 61/150/3 42/82/3
s 33
f 43/151/5 52/152/5 44/153/5
s 9
f 62/154/3 61/155/3 60/156/3
s 12
f 62/154/4 41/114/4 42/104/4
s 34
f 47/157/5 61/158/5 48/159/5
s 35
f 48/160/1 57/161/1 49/162/1
s 36
f 50/163/2 60/164/2 47/165/2
s 16
f 63/166/6 59/167/6 41/114/6
s 37
f 67/168/2 72/169/2 64/170/2
s 38
f 65/171/1 74/172/1 66/173/1
s 39
f 71/174/3 74/175/3 70/176/3
s 40
f 66/177/4 75/178/4 67/179/4
s 16
f 83/180/6 58/181/6 63/166/6
s 41
f 71/182/2 82/183/2 68/184/2
s 42
f 69/185/1 80/186/1 70/187/1
s 43
f 68/188/5 84/189/5 69/190/5
s 12
f 76/191/4 63/166/4 62/154/4
s 9
f 62/154/3 82/192/3 76/191/3
s 44
f 64/193/5 73/194/5 65/195/5
s 9
f 77/135/3 84/196/3 62/133/3
s 39
f 74/175/3 69/197/3 70/176/3
s 9
f 78/198/3 80/199/3 77/145/3
s 45
f 70/200/4 79/201/4 71/202/4
s 39
f 68/203/3 75/204/3 71/174/3
f 69/197/3 72/205/3 68/203/3
s 9
f 76/206/3 79/207/3 78/208/3
s 8
f 81/209/5 77/145/5 58/131/5
s 46
f 67/210/3 65/211/3 66/212/3
s 1
f 81/1/1 83/213/1 76/2/1
s 2
f 2/4/2 21/214/2 16/5/2
s 3
f 6/7/2 14/215/2 11/8/2
s 4
f 4/10/1 12/216/1 13/11/1
s 5
f 10/13/3 14/217/3 13/14/3
s 6
f 5/16/4 13/218/4 14/17/4
s 7
f 6/19/3 3/219/3 4/20/3
s 8
f 20/22/5 17/220/5 16/23/5
s 9
f 15/25/3 22/221/3 18/26/3
s 5
f 8/28/3 12/222/3 11/29/3
f 7/31/3 11/223/3 14/32/3
s 10
f 9/34/4 19/224/4 18/35/4
s 9
f 17/37/3 18/225/3 19/38/3
s 5
f 12/40/3 8/226/3 9/41/3
s 9
f 16/43/3 19/227/3 23/44/3
s 11
f 3/46/5 11/228/5 12/47/5
s 9
f 1/49/3 23/229/3 22/50/3
s 12
f 15/51/4 24/62/4 2/52/4
s 13
f 7/53/5 22/230/5 23/54/5
s 14
f 8/56/1 23/231/1 19/57/1
s 15
f 10/59/2 18/232/2 22/60/2
s 16
f 24/62/6 20/115/6 21/63/6
s 17
f 28/64/2 36/233/2 33/65/2
s 18
f 26/67/1 34/234/1 35/68/1
s 19
f 32/70/3 36/235/3 35/71/3
s 20
f 27/73/4 35/236/4 36/74/4
s 21
f 28/76/3 25/237/3 26/77/3
s 8
f 59/79/5 55/132/5 17/80/5
s 9
f 42/82/3 39/238/3 37/83/3
s 19
f 30/85/3 34/239/3 33/86/3
f 29/88/3 33/240/3 36/89/3
s 22
f 31/91/4 38/241/4 37/92/4
s 9
f 17/80/3 55/132/3 37/94/3
s 19
f 34/96/3 30/242/3 31/97/3
s 9
f 17/27/3 38/243/3 40/99/3
s 23
f 25/100/5 33/244/5 34/101/5
s 9
f 15/51/3 40/245/3 39/103/3
s 12
f 42/104/4 41/114/4 24/62/4
s 24
f 29/105/5 39/246/5 40/106/5
s 25
f 30/108/1 40/247/1 38/109/1
s 26
f 32/111/2 37/248/2 39/112/2
s 16
f 41/114/6 59/167/6 20/115/6
s 27
f 46/116/2 54/249/2 51/117/2
s 28
f 44/119/1 52/250/1 53/120/1
s 29
f 50/122/3 54/251/3 53/123/3
s 30
f 45/125/4 53/252/4 54/126/4
s 31
f 46/128/3 43/253/3 44/129/3
s 8
f 58/131/5 77/145/5 55/132/5
s 9
f 62/133/3 60/254/3 56/134/3
s 29
f 48/136/3 52/255/3 51/137/3
f 47/139/3 51/256/3 54/140/3
s 32
f 49/142/4 57/257/4 56/143/4
s 9
f 77/145/3 56/258/3 57/146/3
s 29
f 52/147/3 48/259/3 49/148/3
s 9
f 55/84/3 57/260/3 61/150/3
s 33
f 43/151/5 51/261/5 52/152/5
s 9
f 62/154/3 42/104/3 61/155/3
s 12
f 62/154/4 63/166/4 41/114/4
s 34
f 47/157/5 60/262/5 61/158/5
s 35
f 48/160/1 61/263/1 57/161/1
s 36
f 50/163/2 56/264/2 60/164/2
s 16
f 63/166/6 58/181/6 59/167/6
s 37
f 67/168/2 75/265/2 72/169/2
s 38
f 65/171/1 73/266/1 74/172/1
s 39
f 71/174/3 75/204/3 74/175/3
s 40
f 66/177/4 74/267/4 75/178/4
s 16
f 83/180/6 81/268/6 58/181/6
s 41
f 71/182/2 79/269/2 82/183/2
s 42
f 69/185/1 84/270/1 80/186/1
s 43
f 68/188/5 82/271/5 84/189/5
s 12
f 76/191/4 83/180/4 63/166/4
s 9
f 62/154/3 84/272/3 82/192/3
s 44
f 64/193/5 72/273/5 73/194/5
s 9
f 77/135/3 80/274/3 84/196/3
s 39
f 74/175/3 73/275/3 69/197/3
s 9
f 78/198/3 79/276/3 80/199/3
s 45
f 70/200/4 80/277/4 79/201/4
s 39
f 68/203/3 72/205/3 75/204/3
f 69/197/3 73/275/3 72/205/3
s 9
f 76/206/3 82/278/3 79/207/3
s 8
f 81/209/5 78/198/5 77/145/5
s 46
f 67/210/3 64/279/3 65/211/3
