# Blender 4.5.4 LTS
# www.blender.org
mtllib elasticoTrampolin.mtl
g Circle.001_Malla
v 12.807299 0.000005 -0.000001
v 12.745627 1.255339 -0.000001
v 12.561210 2.498584 -0.000001
v 12.255820 3.717767 -0.000001
v 11.832400 4.901145 -0.000001
v 11.295028 6.037323 -0.000001
v 10.648879 7.115357 -0.000001
v 9.900176 8.124867 -0.000001
v 9.056129 9.056130 -0.000001
v 8.124866 9.900179 -0.000001
v 7.115355 10.648883 -0.000001
v 6.037320 11.295032 -0.000000
v 4.901142 11.832403 -0.000000
v 3.717763 12.255824 -0.000000
v 2.498580 12.561213 -0.000000
v 1.255335 12.745630 -0.000000
v -0.000000 12.807300 0.000000
v -1.255335 12.745630 0.000000
v -2.498581 12.561212 0.000000
v -3.717763 12.255821 0.000000
v -4.901142 11.832400 0.000000
v -6.037320 11.295031 0.000000
v -7.115354 10.648879 0.000001
v -8.124866 9.900175 0.000001
v -9.056129 9.056127 0.000001
v -9.900176 8.124862 0.000001
v -10.648879 7.115351 0.000001
v -11.295028 6.037316 0.000001
v -11.832400 4.901137 0.000001
v -12.255818 3.717758 0.000001
v -12.561207 2.498575 0.000001
v -12.745625 1.255329 0.000001
v -12.807294 -0.000006 0.000001
v -12.745623 -1.255340 0.000001
v -12.561203 -2.498586 0.000001
v -12.255813 -3.717768 0.000001
v -11.832392 -4.901147 0.000001
v -11.295019 -6.037323 0.000001
v -10.648868 -7.115358 0.000001
v -9.900163 -8.124867 0.000001
v -9.056113 -9.056130 0.000001
v -8.124852 -9.900175 0.000001
v -7.115343 -10.648877 0.000001
v -6.037309 -11.295025 0.000000
v -4.901134 -11.832395 0.000000
v -3.717758 -12.255813 0.000000
v -2.498578 -12.561202 0.000000
v -1.255336 -12.745620 0.000000
v -0.000004 -12.807291 0.000000
v 1.255328 -12.745623 -0.000000
v 2.498571 -12.561203 -0.000000
v 3.717751 -12.255816 -0.000000
v 4.901127 -11.832399 -0.000000
v 6.037303 -11.295031 -0.000000
v 7.115337 -10.648884 -0.000001
v 8.124846 -9.900184 -0.000001
v 9.056109 -9.056140 -0.000001
v 9.900157 -8.124880 -0.000001
v 10.648861 -7.115373 -0.000001
v 11.295012 -6.037342 -0.000001
v 11.832385 -4.901169 -0.000001
v 12.255809 -3.717794 -0.000001
v 12.561201 -2.498615 -0.000001
v 12.745623 -1.255374 -0.000001
vn -0.0000 -0.0000 1.0000
s 0
g off
g Circle.001_black-rubber
usemtl black-rubber
f 33//1 49//1 1//1
f 1//1 2//1 3//1
f 3//1 4//1 5//1
f 5//1 6//1 7//1
f 7//1 8//1 9//1
f 9//1 10//1 11//1
f 11//1 12//1 13//1
f 13//1 14//1 15//1
f 15//1 16//1 17//1
f 17//1 18//1 19//1
f 19//1 20//1 21//1
f 21//1 22//1 23//1
f 23//1 24//1 25//1
f 25//1 26//1 27//1
f 27//1 28//1 29//1
f 29//1 30//1 31//1
f 31//1 32//1 33//1
f 33//1 34//1 35//1
f 35//1 36//1 37//1
f 37//1 38//1 39//1
f 39//1 40//1 41//1
f 41//1 42//1 43//1
f 43//1 44//1 45//1
f 45//1 46//1 47//1
f 47//1 48//1 49//1
f 49//1 50//1 51//1
f 51//1 52//1 53//1
f 53//1 54//1 55//1
f 55//1 56//1 57//1
f 57//1 58//1 59//1
f 59//1 60//1 61//1
f 61//1 62//1 63//1
f 63//1 64//1 1//1
f 1//1 3//1 5//1
f 5//1 7//1 9//1
f 9//1 11//1 13//1
f 13//1 15//1 17//1
f 17//1 19//1 21//1
f 21//1 23//1 25//1
f 25//1 27//1 29//1
f 29//1 31//1 33//1
f 33//1 35//1 37//1
f 37//1 39//1 41//1
f 41//1 43//1 45//1
f 45//1 47//1 49//1
f 49//1 51//1 53//1
f 53//1 55//1 57//1
f 57//1 59//1 61//1
f 61//1 63//1 1//1
f 1//1 5//1 9//1
f 9//1 13//1 17//1
f 17//1 21//1 25//1
f 25//1 29//1 33//1
f 33//1 37//1 41//1
f 41//1 45//1 49//1
f 49//1 53//1 57//1
f 57//1 61//1 1//1
f 1//1 9//1 17//1
f 17//1 25//1 33//1
f 33//1 41//1 49//1
f 49//1 57//1 1//1
f 1//1 17//1 33//1
