# Blender 5.0.0
# www.blender.org
mtllib puertaGaraje.mtl
g pCube11.001_Malla
v -0.948751 0.500000 0.500000
v -0.948751 -0.500000 0.500000
v 0.051249 0.500000 0.500000
v 0.051249 -0.500000 0.500000
v 0.051249 0.500000 -0.500000
v 0.051249 -0.500000 -0.500000
v -0.948751 0.500000 -0.500000
v -0.948751 -0.500000 -0.500000
v 0.051249 0.500000 -0.437727
v -0.948751 0.500000 -0.437728
v -0.948751 0.167006 -0.437728
v 0.051249 -0.500000 -0.437727
v -0.026688 0.500000 0.500000
v -0.026688 0.500000 -0.437727
v -0.026688 0.500000 -0.500000
v -0.026688 -0.500000 -0.500000
v -0.026688 0.167006 -0.437727
v -0.026688 -0.500000 0.500000
v 0.051249 0.500000 0.418044
v -0.026688 0.500000 0.418044
v -0.948751 0.500000 0.418043
v -0.948751 0.167005 0.418043
v -0.026688 0.167005 0.418043
v 0.051249 -0.500000 0.418044
vn -0.0000 -0.0000 1.0000
vn 1.0000 -0.0000 -0.0000
vn -0.0000 -0.0000 -1.0000
vn -1.0000 -0.0000 -0.0000
vn -0.0000 -0.8160 -0.5781
vn -0.0218 -0.3616 -0.9321
vn -0.0000 -0.1220 -0.9925
vn -0.0000 1.0000 -0.0000
vn -0.0244 -0.2876 0.9574
vn -0.0000 -0.8103 0.5860
vn -0.0000 -0.0930 0.9957
vn -0.9180 -0.3964 0.0135
vn -0.0000 -1.0000 -0.0000
vn -0.9413 -0.3367 -0.0234
vn -0.6493 -0.5925 0.4769
vn -0.6500 -0.6018 -0.4640
vt 0.625000 0.000000
vt 0.375000 0.230516
vt 0.375000 0.000000
vt 0.625000 0.250000
vt 0.375000 0.270489
vt 0.375000 0.250000
vt 0.625000 0.519484
vt 0.375000 0.750000
vt 0.375000 0.519484
vt 0.625000 0.979511
vt 0.375000 1.000000
vt 0.375000 0.979511
vt 0.645489 0.000000
vt 0.625000 0.230516
vt 0.354511 0.230516
vt 0.140568 0.000000
vt 0.125000 0.230516
vt 0.125000 0.000000
vt 0.625000 0.765568
vt 0.375000 0.765568
vt 0.875000 0.230516
vt 0.859432 0.000000
vt 0.875000 0.000000
vt 0.625000 0.484432
vt 0.375000 0.500000
vt 0.375000 0.484432
vt 0.354511 0.250000
vt 0.140568 0.230516
vt 0.125000 0.250000
vt 0.625000 0.500000
vt 0.859432 0.250000
vt 0.875000 0.250000
vt 0.645489 0.250000
vt 0.140568 0.250000
vt 0.354511 0.000000
vt 0.859432 0.230516
vt 0.645489 0.230516
vt 0.625000 0.270489
vt 0.625000 0.750000
vt 0.625000 1.000000
s 1
g off
g pCube11.001_lambert36
usemtl lambert36
f 2/1/1 13/2/1 1/3/1
s 2
f 4/4/2 19/5/2 3/6/2
s 3
f 16/7/3 7/8/3 15/9/3
s 4
f 22/10/4 1/11/4 21/12/4
s 5
f 22/13/5 18/14/6 2/1/7
s 6
f 20/15/8 1/3/8 13/2/8
f 10/16/8 15/17/8 7/18/8
s 4
f 7/8/4 11/19/4 10/20/4
s 5
f 16/21/9 11/22/10 8/23/11
s 2
f 12/24/2 5/25/2 9/26/2
s 6
f 20/15/8 3/6/8 19/27/8
f 14/28/8 5/29/8 15/17/8
s 3
f 6/30/3 15/9/3 5/25/3
s 5
f 12/31/12 16/21/9 6/32/13
f 18/14/6 24/33/14 4/4/13
s 1
f 18/14/1 3/6/1 13/2/1
s 6
f 14/28/8 19/27/8 9/34/8
f 21/35/8 14/28/8 10/16/8
s 4
f 11/19/4 21/12/4 10/20/4
s 5
f 22/13/5 17/36/15 23/37/16
f 23/37/16 12/31/12 24/33/14
s 2
f 24/38/2 9/26/2 19/5/2
s 1
f 2/1/1 18/14/1 13/2/1
s 2
f 4/4/2 24/38/2 19/5/2
s 3
f 16/7/3 8/39/3 7/8/3
s 4
f 22/10/4 2/40/4 1/11/4
s 5
f 22/13/5 23/37/16 18/14/6
s 6
f 20/15/8 21/35/8 1/3/8
f 10/16/8 14/28/8 15/17/8
s 4
f 7/8/4 8/39/4 11/19/4
s 5
f 16/21/9 17/36/15 11/22/10
s 2
f 12/24/2 6/30/2 5/25/2
s 6
f 20/15/8 13/2/8 3/6/8
f 14/28/8 9/34/8 5/29/8
s 3
f 6/30/3 16/7/3 15/9/3
s 5
f 12/31/12 17/36/15 16/21/9
f 18/14/6 23/37/16 24/33/14
s 1
f 18/14/1 4/4/1 3/6/1
s 6
f 14/28/8 20/15/8 19/27/8
f 21/35/8 20/15/8 14/28/8
s 4
f 11/19/4 22/10/4 21/12/4
s 5
f 22/13/5 11/22/10 17/36/15
f 23/37/16 17/36/15 12/31/12
s 2
f 24/38/2 12/24/2 9/26/2
